/vscmnt/brussel_pixiu_data/_data_brussel/112/vsc11236/PredSimResults/SUBJ04opt3D/weighted/expIG/worker_03.mot
version=1
nRows=8
nColumns=50
inDegrees=yes
endheader
                time	         pelvis_tilt	         pelvis_list	     pelvis_rotation	           pelvis_tx	           pelvis_ty	           pelvis_tz	       hip_flexion_r	     hip_adduction_r	      hip_rotation_r	        knee_angle_r	       ankle_angle_r	         mtp_angle_r	       hip_flexion_l	     hip_adduction_l	      hip_rotation_l	        knee_angle_l	       ankle_angle_l	         mtp_angle_l	    lumbar_extension	      lumbar_bending	     lumbar_rotation	 ercspn_r/activation	 intobl_r/activation	 extobl_r/activation	    abd_r/activation	    add_r/activation	hamstrings_r/activation	bifemsh_r/activation	glut_max_r/activation	iliopsoas_r/activation	rect_fem_r/activation	  vasti_r/activation	gastroc_r/activation	 soleus_r/activation	tib_ant_r/activation	 ercspn_l/activation	 intobl_l/activation	 extobl_l/activation	    abd_l/activation	    add_l/activation	hamstrings_l/activation	bifemsh_l/activation	glut_max_l/activation	iliopsoas_l/activation	rect_fem_l/activation	  vasti_l/activation	gastroc_l/activation	 soleus_l/activation	tib_ant_l/activation	
          1.37721962	         -1.57265070	          0.28986840	          8.55847236	          1.17063667	          0.88442411	         -0.01117655	         28.20299992	         -2.91034923	         -9.62452922	        -10.43752119	          3.98692117	          0.23001717	        -11.87470325	         -0.20530663	         -7.23032286	         -6.84454476	         14.14935228	         17.60512609	        -14.05617485	         -4.29805448	         -7.76152222	          0.04545823	          0.23384265	          0.02181950	          0.00999999	          0.25472552	          0.06562703	          0.01938059	          0.01693046	          0.18921556	          0.04209090	          0.04999958	          0.00999999	          0.00999999	          0.33777582	          0.01000000	          0.00999999	          0.00999999	          0.07896128	          0.00999999	          0.02961252	          0.29093664	          0.01994175	          0.01858763	          0.00999999	          0.00999999	          0.26331878	          0.24363450	          0.01319465	
          1.39099181	         -1.68374563	          0.28023758	          8.32863420	          1.18575552	          0.88198389	         -0.01078422	         28.21855849	         -2.74691543	         -9.83710826	        -11.81064312	          3.81231750	          0.22726874	        -12.55608442	         -0.31167594	         -7.89489585	         -7.32907736	         14.05773293	         18.96975307	        -13.54221892	         -3.65415545	         -7.82123486	          0.03697184	          0.22655312	          0.01774612	          0.00999999	          0.31198196	          0.06740113	          0.01576252	          0.01376979	          0.15389177	          0.03423314	          0.04066539	          0.01511759	          0.01858763	          0.33116565	          0.02714026	          0.00999999	          0.00999999	          0.06422036	          0.00999999	          0.02408429	          0.24891434	          0.01621891	          0.01511759	          0.00999999	          0.00999999	          0.25808532	          0.25220959	          0.01073140	
          1.40476401	         -1.77830768	          0.21231944	          8.05770894	          1.20133828	          0.87966411	         -0.01034441	         28.11510944	         -2.57187853	         -9.90180659	        -13.20817435	          3.57938625	          0.22120744	        -13.20044618	         -0.48380103	         -8.60069878	         -7.95965386	         13.88177545	         20.41580819	        -12.98458726	         -2.91860659	         -7.85830850	          0.03006973	          0.22011063	          0.01443318	          0.01440129	          0.25373947	          0.07207464	          0.01281989	          0.03250733	          0.12516241	          0.02784231	          0.03981495	          0.01229535	          0.01511759	          0.35312955	          0.02749354	          0.00999999	          0.00999999	          0.05223135	          0.00999999	          0.03196512	          0.20244566	          0.01319108	          0.01229536	          0.00999999	          0.00999999	          0.23439315	          0.25204673	          0.00999999	
          1.41853620	         -1.85770610	          0.08088628	          7.73594469	          1.21718454	          0.87764437	         -0.00979256	         27.94947345	         -2.34876251	        -10.05857583	        -14.48312607	          3.17796515	          0.20766799	        -13.74686131	         -0.73405767	         -9.35787510	         -8.81829737	         13.59799704	         21.93028016	        -12.41081537	         -2.09314959	         -7.86263538	          0.02445615	          0.17901918	          0.01173871	          0.02227704	          0.21684526	          0.07823120	          0.01042662	          0.02643869	          0.10179641	          0.02264456	          0.10856702	          0.00999999	          0.01229535	          0.38093643	          0.02834430	          0.00999999	          0.00999999	          0.04248052	          0.00999999	          0.03986257	          0.16465200	          0.01072850	          0.00999999	          0.00999999	          0.00999999	          0.19063536	          0.24264548	          0.00999999	
          1.43230840	         -1.92247513	         -0.10280755	          7.37015447	          1.23317058	          0.87610740	         -0.00911339	         27.71227023	         -2.08572341	        -10.35297692	        -15.65400053	          2.82557380	          0.18667219	        -14.14497491	         -1.06279060	        -10.15743007	         -9.97676358	         13.16181435	         23.50580959	        -11.84119186	         -1.19704086	         -7.83352513	          0.02326164	          0.14559890	          0.00999999	          0.04437690	          0.18917540	          0.07837001	          0.01000003	          0.02150297	          0.08279250	          0.01841715	          0.17979781	          0.00999999	          0.00999999	          0.39666130	          0.04290733	          0.00999999	          0.00999999	          0.03455002	          0.00999999	          0.03510790	          0.13391386	          0.01058486	          0.00999999	          0.00999999	          0.00999999	          0.15504651	          0.22538554	          0.00999999	
          1.44608060	         -1.97339635	         -0.33084585	          6.97240219	          1.24917750	          0.87525223	         -0.00829394	         27.36224804	         -1.77647483	        -10.74363106	        -16.67838349	          2.68367482	          0.16383314	        -14.33820858	         -1.47872087	        -10.98828409	        -11.51105649	         12.50779697	         25.15269039	        -11.29166042	         -0.24852542	         -7.77223503	          0.02942271	          0.11841770	          0.00999999	          0.07360914	          0.16520195	          0.07738804	          0.00999999	          0.02558097	          0.06733635	          0.01497893	          0.22152723	          0.00999999	          0.00999999	          0.39795037	          0.07052974	          0.00999999	          0.00999999	          0.02810004	          0.00999999	          0.04956288	          0.10891409	          0.01569782	          0.00999999	          0.00999999	          0.00999999	          0.12610158	          0.18424343	          0.00999999	
          1.45985279	         -2.01136454	         -0.59354078	          6.55690911	          1.26505956	          0.87522090	         -0.00733111	         26.89248067	         -1.41238546	        -11.14340898	        -17.53683957	          2.77137568	          0.14908924	        -14.26569667	         -1.99151146	        -11.84961107	        -13.50473794	         11.59556047	         26.84991572	        -10.77797593	          0.73363907	         -7.68403664	          0.03243934	          0.09631084	          0.00999999	          0.09347030	          0.14817184	          0.07863659	          0.01000001	          0.02080537	          0.05476563	          0.01218259	          0.23750083	          0.00999999	          0.00999999	          0.38064825	          0.08928323	          0.00999999	          0.00999999	          0.02285417	          0.00999999	          0.06637457	          0.08858141	          0.02443220	          0.00999999	          0.00999999	          0.00999999	          0.10256025	          0.14984786	          0.00999999	
          1.47362499	         -2.03674507	         -0.87041838	          6.13680333	          1.28070837	          0.87601558	         -0.00623329	         26.30680030	         -0.99767418	        -11.46706434	        -18.21960957	          3.06458084	          0.16152989	        -13.88915606	         -2.59859050	        -12.73792146	        -16.00466714	         10.38460002	         28.57206176	        -10.31136330	          1.72093886	         -7.57465887	          0.03248917	          0.07833101	          0.00999999	          0.10411920	          0.15620213	          0.08129515	          0.00999999	          0.02700332	          0.04454168	          0.00999999	          0.24974722	          0.00999999	          0.00999999	          0.34611322	          0.08563093	          0.00999999	          0.00999999	          0.01858763	          0.10895750	          0.09703276	          0.07204455	          0.01987106	          0.00999999	          0.00999999	          0.00999999	          0.08341374	          0.12187344	          0.00999999	
